<svg width="500" height="200" viewBox="0 0 500 200" fill="none" xmlns="http://www.w3.org/2000/svg">
<path d="M164.64 147L164.928 131.448H134.784V125.4L149.952 79.224L157.824 80.28L143.328 124.248V124.728L164.928 124.344L166.752 98.52H172.704V124.344L178.848 124.152V131.448H172.704L172.8 147H164.64ZM211.019 148.248C207.947 148.248 205.099 147.736 202.475 146.712C199.851 145.688 197.547 143.928 195.562 141.432C193.643 138.872 192.107 135.352 190.955 130.872C189.867 126.328 189.323 120.536 189.323 113.496C189.323 106.52 189.867 100.792 190.955 96.312C192.107 91.832 193.643 88.344 195.562 85.848C197.547 83.288 199.851 81.528 202.475 80.568C205.099 79.544 207.947 79.032 211.019 79.032C214.091 79.032 216.939 79.544 219.563 80.568C222.187 81.528 224.491 83.288 226.475 85.848C228.459 88.344 229.995 91.832 231.083 96.312C232.171 100.792 232.715 106.52 232.715 113.496C232.715 120.536 232.171 126.328 231.083 130.872C229.995 135.352 228.459 138.872 226.475 141.432C224.491 143.928 222.187 145.688 219.563 146.712C216.939 147.736 214.091 148.248 211.019 148.248ZM211.115 140.952C214.059 140.952 216.491 140.216 218.411 138.744C220.395 137.208 221.899 134.456 222.923 130.488C223.947 126.52 224.459 120.856 224.459 113.496C224.459 107.8 224.139 103.16 223.499 99.576C222.923 95.992 222.059 93.24 220.907 91.32C219.755 89.4 218.347 88.088 216.683 87.384C215.019 86.616 213.131 86.232 211.019 86.232C208.907 86.232 207.019 86.584 205.355 87.288C203.691 87.992 202.283 89.304 201.131 91.224C199.979 93.144 199.115 95.896 198.539 99.48C197.963 103 197.674 107.608 197.674 113.304C197.674 120.664 198.155 126.36 199.115 130.392C200.139 134.36 201.643 137.112 203.627 138.648C205.675 140.184 208.171 140.952 211.115 140.952ZM271.14 147L271.428 131.448H241.284V125.4L256.452 79.224L264.324 80.28L249.828 124.248V124.728L271.428 124.344L273.252 98.52H279.204V124.344L285.348 124.152V131.448H279.204L279.3 147H271.14ZM297.359 147V138.456H307.151V147H297.359ZM321.734 147V138.456H331.526V147H321.734ZM346.109 147V138.456H355.901V147H346.109Z" fill="#3F3535"/>
</svg>
